<?xml version="1.0" standalone="no"?><!DOCTYPE svg PUBLIC "-//W3C//DTD SVG 1.1//EN" "http://www.w3.org/Graphics/SVG/1.1/DTD/svg11.dtd"><svg t="1571622743241" class="icon" viewBox="0 0 1024 1024" version="1.1" xmlns="http://www.w3.org/2000/svg" p-id="8753" xmlns:xlink="http://www.w3.org/1999/xlink" width="200" height="200"><defs><style type="text/css"></style></defs><path d="M895.8 762.7v11.1c0.1-1.8 0.2-3.7 0.2-5.6 0-1.8 0-3.7-0.2-5.5z" p-id="8754" fill="#3399ff"></path><path d="M481.4 513L116.5 339.7c-26.9-12.8-26.3-51.3 0.9-64.3l364.1-172.8c19.4-9.2 41.8-9.3 60.9-0.2l365 172.7c26.9 12.7 26.4 51.3-0.8 64.3L542.5 512.8c-19.4 9.2-41.9 9.3-61.1 0.2z" p-id="8755" fill="#3399ff"></path><path d="M906.6 543.6L542.5 717.1c-19.4 9.3-41.9 9.4-61.1 0.2L116.5 544c-26.9-12.8-26.3-51.3 0.9-64.3l72.4-34.4L454 570.8c17.9 8.5 37.8 13 57.6 13 20.1 0 40.3-4.6 58.5-13.2l264.2-125.9 73.2 34.6c26.9 12.7 26.4 51.3-0.9 64.3z" p-id="8756" fill="#3399ff"></path><path d="M906.6 747.9L542.5 921.4c-19.4 9.3-41.9 9.4-61.1 0.2L116.5 748.3c-26.9-12.8-26.3-51.3 0.9-64.3l72.4-34.4L454 775.1c17.9 8.5 37.8 13 57.6 13 20.1 0 40.3-4.6 58.5-13.3L834.2 649l73.2 34.7c27 12.6 26.5 51.2-0.8 64.2z" p-id="8757" fill="#3399ff"></path></svg>