<?xml version="1.0" standalone="no"?><!DOCTYPE svg PUBLIC "-//W3C//DTD SVG 1.1//EN" "http://www.w3.org/Graphics/SVG/1.1/DTD/svg11.dtd"><svg t="1571622178830" class="icon" viewBox="0 0 1024 1024" version="1.1" xmlns="http://www.w3.org/2000/svg" p-id="2249" xmlns:xlink="http://www.w3.org/1999/xlink" width="200" height="200"><defs><style type="text/css"></style></defs><path d="M891.369861 260.842664h-132.964366v-20.344275C758.405495 107.86825 650.537244 0 517.936169 0S277.481374 107.86825 277.481374 240.469326v20.344275H132.630139a87.451318 87.451318 0 0 0-87.189748 87.189748v588.806903a87.451318 87.451318 0 0 0 87.189748 87.189748h758.739722a87.451318 87.451318 0 0 0 87.189748-87.189748V348.032412a87.451318 87.451318 0 0 0-87.189748-87.189748z m-539.777201-20.344275a166.35804 166.35804 0 1 1 332.774207 0v20.344275h-332.774207z m552.855663 696.311863a13.252842 13.252842 0 0 1-13.078462 13.078462H132.630139a13.252842 13.252842 0 0 1-13.078462-13.078462V348.032412a13.252842 13.252842 0 0 1 13.078462-13.078462h144.851235v124.812125a52.313849 52.313849 0 1 0 74.111286-0.842834V334.95395h332.774207v124.884783a52.313849 52.313849 0 1 0 74.111286-0.973619V334.95395h132.964366a13.252842 13.252842 0 0 1 13.078462 13.078462z" fill="#3399ff" p-id="2250"></path></svg>