<?xml version="1.0" standalone="no"?><!DOCTYPE svg PUBLIC "-//W3C//DTD SVG 1.1//EN" "http://www.w3.org/Graphics/SVG/1.1/DTD/svg11.dtd"><svg t="1571622549982" class="icon" viewBox="0 0 1024 1024" version="1.1" xmlns="http://www.w3.org/2000/svg" p-id="4427" xmlns:xlink="http://www.w3.org/1999/xlink" width="200" height="200"><defs><style type="text/css"></style></defs><path d="M663.72 297a32 32 0 0 0-45.25 0L512.95 402.55 407.43 297a32 32 0 0 0-45.25 45.25l73.58 73.58H385a32 32 0 0 0 0 64h96v63h-96a32 32 0 1 0 0 64h96v96.84a32 32 0 1 0 64 0v-96.83h96a32 32 0 0 0 0-64h-96v-63h96a32 32 0 0 0 0-64h-50.86l73.58-73.58a32 32 0 0 0 0-45.26z" p-id="4428" fill="#3399ff"></path><path d="M883.67 576.73a32 32 0 0 0-39.08 22.83C805 750.38 668.28 855.72 512.12 855.72a344.4 344.4 0 0 1-318.94-215.35H256l-96.66-128.62-95.62 128.62H125q1.28 3.87 2.64 7.71a407.87 407.87 0 0 0 384.48 271.64c185.22 0 347.39-125 394.38-303.91a32 32 0 0 0-22.83-39.08zM140.09 450.11A32 32 0 0 0 179 427a343.33 343.33 0 0 1 333.13-258.7c142.47 0 267.21 85.49 319.09 215.59H768l96.62 128.62 95.62-128.62h-61A407.85 407.85 0 0 0 117 411.21a32 32 0 0 0 23.09 38.9z" p-id="4429" fill="#3399ff"></path></svg>