<?xml version="1.0" standalone="no"?><!DOCTYPE svg PUBLIC "-//W3C//DTD SVG 1.1//EN" "http://www.w3.org/Graphics/SVG/1.1/DTD/svg11.dtd"><svg t="1571622496692" class="icon" viewBox="0 0 1024 1024" version="1.1" xmlns="http://www.w3.org/2000/svg" p-id="3578" xmlns:xlink="http://www.w3.org/1999/xlink" width="200" height="200"><defs><style type="text/css"></style></defs><path d="M70.7 429.5c-5.5 0-10.9-2.5-14.5-7.3-5.9-8-4.3-19.3 3.7-25.2L502.8 68.4c6.4-4.8 15.2-4.7 21.6 0.1L957 397.1c7.9 6 9.5 17.3 3.4 25.2-6 7.9-17.3 9.5-25.2 3.4L513.4 105.4l-432 320.5c-3.2 2.4-7 3.6-10.7 3.6z" fill="#ffffff" p-id="3579"></path><path d="M167.9 953c-9.9 0-18-8.1-18-18V351c0-9.9 8.1-18 18-18s18 8.1 18 18v584c0 10-8 18-18 18zM859.3 953c-9.9 0-18-8.1-18-18V351c0-9.9 8.1-18 18-18s18 8.1 18 18v584c0 10-8 18-18 18zM537.1 816h-55.3c-21.5 0-26.1 4.6-26.1 26.1v56.8c0 21.5 4.6 26.1 26.1 26.1h55.3c21.5 0 26.1-4.6 26.1-26.1v-56.8c-1.6-21.5-6.2-26.1-26.1-26.1zM356.6 816h-55.3c-21.5 0-26.1 4.6-26.1 26.1v56.8c0 21.5 4.6 26.1 26.1 26.1h55.3c21.5 0 26.1-4.6 26.1-26.1v-56.8c-1.6-21.5-6.2-26.1-26.1-26.1zM667.4 816h55.3c21.5 0 26.1 4.6 26.1 26.1v56.8c0 21.5-4.6 26.1-26.1 26.1h-55.3c-21.5 0-26.1-4.6-26.1-26.1v-56.8c1.5-21.5 6.1-26.1 26.1-26.1zM356.6 619.2h-55.3c-21.5 0-26.1 4.6-26.1 26.1v55.3c0 21.5 4.6 26.1 26.1 26.1h55.3c21.5 0 26.1-4.6 26.1-26.1v-56.8c-1.6-20-6.2-24.6-26.1-24.6zM537.1 619.2h-55.3c-21.5 0-26.1 4.6-26.1 26.1v55.3c0 21.5 4.6 26.1 26.1 26.1h55.3c21.5 0 26.1-4.6 26.1-26.1v-56.8c-1.6-20-6.2-24.6-26.1-24.6zM356.6 433.5h-55.3c-21.5 0-26.1 4.6-26.1 26.1v56.8c0 21.5 4.6 26.1 26.1 26.1h55.3c21.5 0 26.1-4.6 26.1-26.1v-56.8c-1.6-23-6.2-26.1-26.1-26.1z" fill="#ffffff" p-id="3580"></path></svg>