<?xml version="1.0" standalone="no"?><!DOCTYPE svg PUBLIC "-//W3C//DTD SVG 1.1//EN" "http://www.w3.org/Graphics/SVG/1.1/DTD/svg11.dtd"><svg t="1570168625943" class="icon" viewBox="0 0 1024 1024" version="1.1" xmlns="http://www.w3.org/2000/svg" p-id="15447" xmlns:xlink="http://www.w3.org/1999/xlink" width="200" height="200"><defs><style type="text/css"></style></defs><path d="M836.185 639.965h-213.58V420.163h-56v219.801h-109.21V420.163h-56v219.801h-213.58c-49.706 0-90 40.294-90 90v108.254c0 49.706 40.294 90 90 90h648.369c49.706 0 90-40.294 90-90V729.965c0.001-49.706-40.294-90-89.999-90z m34 198.254c0 18.748-15.252 34-34 34h-648.37c-18.748 0-34-15.252-34-34V729.965c0-18.748 15.252-34 34-34h648.369c18.748 0 34 15.252 34 34l0.001 108.254z" fill="#ffffff" p-id="15448"></path><path d="M513 120.953c76.768 0 139 62.232 139 139s-62.232 139-139 139-139-62.232-139-139 62.232-139 139-139m0-56c-26.3 0-51.843 5.163-75.92 15.347-23.227 9.824-44.075 23.877-61.966 41.767-17.89 17.89-31.943 38.739-41.767 61.966C323.163 208.109 318 233.652 318 259.953s5.163 51.843 15.347 75.92c9.824 23.227 23.877 44.075 41.767 61.966 17.89 17.89 38.739 31.943 61.966 41.767 24.077 10.184 49.62 15.347 75.92 15.347 26.3 0 51.843-5.163 75.92-15.347 23.227-9.824 44.076-23.877 61.966-41.767s31.943-38.739 41.767-61.966c10.184-24.077 15.347-49.62 15.347-75.92s-5.163-51.843-15.347-75.92c-9.824-23.227-23.877-44.075-41.767-61.966-17.89-17.89-38.739-31.943-61.966-41.767C564.843 70.116 539.3 64.953 513 64.953z" fill="#ffffff" p-id="15449"></path></svg>