<?xml version="1.0" standalone="no"?><!DOCTYPE svg PUBLIC "-//W3C//DTD SVG 1.1//EN" "http://www.w3.org/Graphics/SVG/1.1/DTD/svg11.dtd"><svg t="1570167284774" class="icon" viewBox="0 0 1024 1024" version="1.1" xmlns="http://www.w3.org/2000/svg" p-id="6438" xmlns:xlink="http://www.w3.org/1999/xlink" width="200" height="200"><defs><style type="text/css"></style></defs><path d="M883.84 164.756H140.4c-51.061 0-93.137 43.26-93.137 96.21V717.43c0 52.961 42.081 96.21 93.138 96.21h261.442l66.192 87.7a29.85 29.85 0 0 0 8.033 8.28c19.855 17.018 48.696 12.287 65.244-8.28l66.186-87.7H883.84c51.297 0 92.902-43.249 92.902-96.21V260.966c0-52.95-41.605-96.21-92.902-96.21zM303.037 549.361c-32.624 0-58.153-26.47-58.153-60.043 0-33.802 25.529-60.277 58.153-60.277 32.62 0 58.148 26.475 58.148 60.277 0 33.572-25.528 60.043-58.148 60.043z m208.963 0c-32.384 0-58.148-26.47-58.148-60.043 0-33.802 25.764-60.277 58.148-60.277 32.625 0 58.148 26.475 58.148 60.277 0 33.572-25.523 60.043-58.148 60.043z m209.203 0c-32.384 0-57.917-26.47-57.917-60.043 0-33.802 25.528-60.277 57.917-60.277s58.148 26.475 58.148 60.277c0.005 33.572-25.759 60.043-58.148 60.043z" p-id="6439"></path></svg>