<?xml version="1.0" standalone="no"?><!DOCTYPE svg PUBLIC "-//W3C//DTD SVG 1.1//EN" "http://www.w3.org/Graphics/SVG/1.1/DTD/svg11.dtd"><svg t="1569198942914" class="icon" viewBox="0 0 1024 1024" version="1.1" xmlns="http://www.w3.org/2000/svg" p-id="1338" xmlns:xlink="http://www.w3.org/1999/xlink" width="200" height="200"><defs><style type="text/css"></style></defs><path d="M180.8 271.8l103.5 481.5h598.9L960 271.8H282.2l-39-177.4-0.3-1.2H141.5l0.3 1.2H64v76h94.6l22.2 101.4z m254.4 658.9c-35.3 0-64-28.4-64-63.4s28.7-63.4 64-63.4c35.4 0 64 28.4 64 63.4s-28.7 63.4-64 63.4z m281.6 0c-35.4 0-64-28.4-64-63.4s28.6-63.4 64-63.4c35.3 0 64 28.4 64 63.4s-28.7 63.4-64 63.4z" p-id="1339"></path></svg>