<?xml version="1.0" standalone="no"?><!DOCTYPE svg PUBLIC "-//W3C//DTD SVG 1.1//EN" "http://www.w3.org/Graphics/SVG/1.1/DTD/svg11.dtd"><svg t="1570167130065" class="icon" viewBox="0 0 1024 1024" version="1.1" xmlns="http://www.w3.org/2000/svg" p-id="1965" xmlns:xlink="http://www.w3.org/1999/xlink" width="200" height="200"><defs><style type="text/css"></style></defs><path d="M865.28 1016.832H192c-14.336 0-25.6-11.264-25.6-25.6V183.296c0-14.336 11.264-25.6 25.6-25.6h178.176c12.288-76.288 78.848-134.656 158.72-134.656s145.92 58.368 158.208 134.656H865.28c14.336 0 25.6 11.264 25.6 25.6v807.936c0 14.336-11.264 25.6-25.6 25.6z m-647.68-51.2H839.68V208.896h-176.128c-14.336 0-25.6-11.264-25.6-25.6 0-59.904-49.152-109.056-109.056-109.056-60.416 0-109.568 49.152-109.568 109.056 0 14.336-11.264 25.6-25.6 25.6H217.6v756.736z" p-id="1966"></path><path d="M528.896 149.504c18.432 0 33.792 15.36 33.792 33.792s-15.36 33.792-33.792 33.792-33.792-15.36-33.792-33.792c0-18.432 14.848-33.792 33.792-33.792zM717.312 443.392H339.968c-14.336 0-25.6-11.264-25.6-25.6s11.264-25.6 25.6-25.6h377.344c14.336 0 25.6 11.264 25.6 25.6s-11.264 25.6-25.6 25.6zM717.312 626.176H339.968c-14.336 0-25.6-11.264-25.6-25.6s11.264-25.6 25.6-25.6h377.344c14.336 0 25.6 11.264 25.6 25.6s-11.264 25.6-25.6 25.6zM717.312 809.472H339.968c-14.336 0-25.6-11.264-25.6-25.6s11.264-25.6 25.6-25.6h377.344c14.336 0 25.6 11.264 25.6 25.6s-11.264 25.6-25.6 25.6z" p-id="1967"></path></svg>