<?xml version="1.0" standalone="no"?><!DOCTYPE svg PUBLIC "-//W3C//DTD SVG 1.1//EN" "http://www.w3.org/Graphics/SVG/1.1/DTD/svg11.dtd"><svg t="1577065088310" class="icon" viewBox="0 0 1024 1024" version="1.1" xmlns="http://www.w3.org/2000/svg" p-id="1137" xmlns:xlink="http://www.w3.org/1999/xlink" width="200" height="200"><defs><style type="text/css"></style></defs><path d="M929.842527 442.35378l-41.793872 0c-19.153222 0-39.46278-14.966876-45.183062-33.274848l-23.965831-58.294684c-9.0624-16.882506-5.353938-41.759079 8.127098-55.311747l29.664623-29.590945c13.57825-13.59053 13.57825-35.754319 0-49.306986l-49.284473-49.234331c-13.553691-13.530155-35.704177-13.530155-49.282427 0l-29.639041 29.625738c-13.505595 13.543458-38.429241 17.23657-55.349609 8.17724l-58.221006-23.978111c-18.24555-5.659907-33.274848-25.993001-33.274848-45.158503L581.64008 94.212732c0-19.11843-15.715937-34.846646-34.795481-34.846646l-69.614497 0c-19.177781 0-34.869159 15.728216-34.869159 34.846646l0 41.793872c0 19.165502-14.931061 39.498596-33.249265 45.158503l-58.296731 23.978111c-16.891715 9.05933-41.74373 5.38873-55.249325-8.17724l-29.736255-29.625738c-13.531178-13.530155-35.680641-13.530155-49.211818 0l-49.234331 49.234331c-13.553691 13.553691-13.553691 35.716456 0 49.259914l29.565363 29.639041c13.603833 13.553691 17.287735 38.429241 8.202822 55.311747l-23.991414 58.344826c-5.67321 18.280342-25.957185 33.259498-45.158503 33.259498l-41.771359-0.034792c-19.152199 0-34.843576 15.652492-34.843576 34.819017l0 69.629847c0 19.153222 15.690354 34.855856 34.843576 34.855856l41.771359 0c19.201318 0.037862 39.435151 15.003715 45.082778 33.262568l24.066115 58.293661c9.012258 16.920368 5.352915 41.869596-8.202822 55.349609l-29.638017 29.613458c-13.481036 13.555737-13.481036 35.706223 0 49.284473l49.306986 49.272193c13.531178 13.530155 35.680641 13.530155 49.211818 0l29.686113-29.65132c13.483082-13.505595 38.356586-17.201777 55.178717-8.066723l58.416458 23.978111c18.318204 5.695722 33.249265 25.979698 33.249265 45.158503l0 41.671075c0 19.117406 15.640212 34.808784 34.869159 34.808784l69.614497 0c19.080567 0 34.795481-15.690354 34.795481-34.808784l0-41.671075c0-19.177781 15.029298-39.46278 33.274848-45.158503l58.344826-23.978111c16.870226-9.135054 41.819454-5.438872 55.349609 8.066723l29.515221 29.65132c13.57825 13.530155 35.729759 13.530155 49.282427 0l49.284473-49.272193c13.57825-13.57825 13.57825-35.728736 0-49.284473l-29.664623-29.613458c-13.480013-13.480013-17.189498-38.429241-8.127098-55.349609l23.965831-58.293661c5.720282-18.257829 26.077935-33.224706 45.183062-33.224706l41.793872 0c19.10615 0 34.770921-15.667841 34.770921-34.821063l0-69.702502C964.613448 458.006272 948.948677 442.35378 929.842527 442.35378M686.174901 511.945765c0 96.173386-77.942163 174.062338-174.077687 174.062338-96.160083 0-174.1002-77.889975-174.1002-174.062338 0-96.125291 77.940117-174.065408 174.1002-174.065408C608.232738 337.880357 686.174901 415.820474 686.174901 511.945765" p-id="1138" fill="#3399ff"></path></svg>